<?xml version="1.0" encoding="utf-8"?>
<!-- Generator: Adobe Illustrator 21.0.0, SVG Export Plug-In . SVG Version: 6.00 Build 0)  -->
<svg version="1.1" id="Capa_1" xmlns="http://www.w3.org/2000/svg" xmlns:xlink="http://www.w3.org/1999/xlink" x="0px" y="0px"
	 viewBox="0 0 111 300.2" style="enable-background:new 0 0 111 300.2;" xml:space="preserve">
<style type="text/css">
	.st0{fill:none;stroke:#000000;stroke-width:3;stroke-miterlimit:10;}
</style>
<path class="st0" d="M89.9,16.9c0-4.1-3.4-7.5-7.5-7.5c-4.1,0-7.5,3.4-7.5,7.5v41.5h-11V16.9c0-4.1-3.4-7.5-7.5-7.5
	s-7.5,3.4-7.5,7.5v41.5h-11V16.9c0-4.1-3.4-7.5-7.5-7.5s-7.5,3.4-7.5,7.5v67.7c0,14.6,9.4,27.1,22.5,31.6v170c0,6.1,4.9,11,11,11
	s11-4.9,11-11v-170c13.1-4.6,22.5-17,22.5-31.6V16.9z"/>
</svg>
